<?xml version="1.0" standalone="no"?>
<!DOCTYPE svg PUBLIC "-//W3C//DTD SVG 20010904//EN"
 "http://www.w3.org/TR/2001/REC-SVG-20010904/DTD/svg10.dtd">
<svg version="1.0" xmlns="http://www.w3.org/2000/svg"
 width="512.000000pt" height="512.000000pt" viewBox="0 0 512.000000 512.000000"
 preserveAspectRatio="xMidYMid meet">
<metadata>
Created by potrace 1.11, written by Peter Selinger 2001-2013
</metadata>
<g transform="translate(0.000000,512.000000) scale(0.100000,-0.100000)"
fill="#000000" stroke="none">
<path d="M2428 4704 c-3 -3 -39 -6 -79 -8 -41 -2 -90 -7 -109 -10 -19 -3 -46
-8 -60 -10 -14 -3 -49 -10 -78 -16 -30 -7 -59 -13 -65 -14 -7 -2 -19 -5 -27
-8 -8 -3 -42 -13 -75 -23 -70 -20 -170 -57 -235 -87 -25 -11 -47 -20 -50 -20
-22 1 -301 -168 -295 -179 3 -5 0 -7 -7 -4 -7 3 -25 -6 -40 -20 -15 -14 -31
-25 -35 -25 -5 0 -16 -8 -26 -17 -9 -10 -52 -47 -96 -83 -45 -36 -78 -71 -76
-78 3 -7 0 -10 -5 -7 -5 3 -22 -7 -36 -22 -14 -15 -45 -48 -68 -73 -34 -37
-83 -95 -144 -175 -80 -103 -248 -414 -238 -440 3 -8 1 -14 -5 -12 -12 3 -41
-73 -34 -91 3 -7 1 -11 -4 -8 -11 7 -24 -41 -15 -56 4 -6 3 -8 -3 -5 -13 8
-48 -117 -37 -134 4 -7 3 -10 -3 -6 -6 4 -13 -7 -17 -26 -3 -17 -8 -43 -11
-57 -3 -14 -8 -41 -11 -60 -3 -19 -7 -37 -9 -40 -2 -3 -7 -44 -10 -90 -4 -47
-9 -88 -12 -92 -2 -5 2 -8 9 -8 10 0 10 -2 -1 -9 -11 -7 -13 -39 -8 -167 6
-172 16 -273 27 -304 1 -3 2 -8 1 -12 -1 -6 29 -152 44 -212 9 -39 48 -151 54
-156 3 -3 7 -16 9 -30 1 -13 6 -27 10 -30 4 -3 8 -12 10 -20 1 -8 7 -24 12
-35 5 -11 18 -41 30 -67 11 -27 24 -48 28 -48 4 0 8 -8 9 -17 3 -32 137 -256
178 -297 9 -9 13 -16 8 -16 -4 0 -3 -4 2 -8 6 -4 30 -32 55 -62 61 -75 66 -80
75 -72 5 4 5 2 2 -4 -13 -22 191 -212 347 -324 94 -67 118 -82 176 -112 14 -7
27 -15 30 -18 17 -18 161 -80 171 -74 7 4 9 3 6 -3 -4 -6 8 -16 26 -23 51 -19
70 -27 97 -38 14 -5 45 -16 70 -23 25 -7 50 -15 55 -18 6 -3 15 -6 20 -7 6 -1
39 -10 75 -19 36 -10 84 -18 106 -19 23 0 40 -4 37 -8 -2 -5 6 -8 19 -9 13 0
32 -2 43 -4 101 -20 420 -27 540 -12 128 15 215 30 215 36 0 3 15 7 33 8 29 2
64 8 77 13 3 1 8 2 13 1 4 0 7 4 7 10 0 5 4 8 9 5 10 -6 115 27 107 34 -2 3 8
5 23 6 14 0 44 9 66 18 22 10 49 22 60 26 64 27 218 104 249 125 20 14 39 25
42 25 7 0 97 61 104 70 3 4 16 13 28 19 13 7 33 21 45 31 12 10 55 46 95 79
41 34 71 61 67 61 -4 0 5 10 20 22 32 25 95 87 95 92 0 3 16 20 35 40 47 49
175 220 175 234 0 7 4 12 8 12 5 0 15 12 23 28 8 15 16 29 19 32 35 35 176
343 164 361 -4 7 -3 10 3 6 8 -5 32 49 38 83 0 3 3 10 6 15 4 6 10 28 14 50
10 46 9 44 20 68 4 10 8 38 9 62 0 23 4 41 9 38 4 -2 7 4 8 14 0 10 2 25 4 33
29 144 40 433 22 610 -10 97 -49 300 -56 296 -3 -2 -6 6 -7 17 -1 29 -8 59
-15 72 -5 8 -15 39 -24 75 -6 25 -29 87 -35 95 -5 6 -9 15 -10 20 -11 52 -100
226 -112 219 -7 -4 -8 -3 -4 4 8 13 -20 72 -34 72 -6 0 -9 4 -8 8 4 13 -114
191 -157 238 -5 6 -28 32 -50 59 -76 91 -282 285 -304 285 -6 0 -11 4 -11 9 0
30 -434 281 -493 284 -14 1 -24 5 -22 8 6 9 -64 31 -76 23 -7 -4 -9 -3 -6 3
10 16 -205 78 -338 98 -16 2 -41 6 -55 9 -14 3 -43 8 -65 11 -52 8 -381 16
-387 9z m387 -208 c22 -3 51 -8 65 -11 14 -3 36 -8 50 -10 14 -3 36 -8 50 -11
14 -3 34 -7 45 -8 11 -2 27 -6 35 -9 8 -3 38 -12 65 -20 28 -8 80 -26 117 -40
36 -14 69 -23 72 -20 3 4 6 2 6 -4 0 -10 39 -25 56 -22 4 0 10 -4 13 -9 9 -13
153 -87 168 -86 7 1 11 -1 9 -5 -4 -6 69 -58 86 -61 4 -1 19 -12 35 -25 83
-71 145 -115 155 -109 6 4 8 3 5 -3 -8 -12 87 -105 98 -95 5 4 5 2 2 -4 -8
-14 76 -97 88 -87 4 5 5 3 2 -3 -4 -7 17 -41 46 -77 30 -35 67 -85 83 -111 16
-25 32 -46 37 -46 4 0 7 -5 7 -11 0 -6 9 -23 20 -39 24 -34 103 -192 131 -262
12 -29 26 -64 32 -78 11 -26 44 -138 53 -179 3 -14 7 -28 9 -32 3 -4 7 -24 10
-45 4 -22 9 -48 12 -59 3 -11 8 -31 9 -45 2 -14 7 -50 11 -80 16 -122 8 -451
-13 -555 -2 -11 -7 -33 -10 -50 -2 -16 -9 -45 -14 -62 -4 -18 -6 -33 -3 -33 3
0 0 -7 -7 -15 -7 -8 -10 -15 -7 -15 6 0 -57 -189 -84 -255 -7 -16 -13 -32 -14
-35 -5 -20 -112 -218 -128 -239 -12 -14 -31 -46 -44 -71 -4 -8 -12 -20 -17
-26 -6 -6 -36 -43 -65 -82 -30 -40 -59 -72 -63 -72 -4 0 -8 -5 -8 -11 0 -6
-20 -29 -45 -51 -25 -22 -42 -45 -38 -51 3 -5 2 -7 -4 -4 -6 4 -24 -8 -41 -26
-36 -38 -71 -68 -134 -116 -27 -19 -48 -39 -48 -43 0 -4 -6 -8 -14 -8 -8 0
-21 -6 -28 -13 -14 -13 -53 -39 -103 -69 -54 -33 -270 -138 -282 -138 -7 0
-13 -4 -13 -10 0 -5 -3 -9 -7 -8 -15 4 -73 -14 -73 -22 0 -4 -6 -7 -12 -7 -23
3 -158 -37 -158 -46 0 -4 -4 -6 -8 -3 -4 2 -68 -6 -141 -18 -112 -19 -166 -23
-325 -21 -105 1 -211 5 -236 9 -220 36 -447 104 -593 177 -43 22 -83 37 -90
33 -7 -4 -9 -3 -4 1 4 5 -8 18 -27 29 -95 57 -136 83 -188 122 -32 23 -64 48
-71 55 -26 25 -67 59 -72 59 -2 0 -34 31 -71 70 -37 38 -71 67 -76 64 -4 -3
-8 1 -8 9 0 7 -8 22 -18 33 -9 10 -36 42 -58 71 -23 29 -45 49 -49 45 -3 -4
-5 -2 -4 3 4 12 -32 75 -43 75 -4 0 -8 4 -8 9 0 5 -22 45 -48 88 -26 43 -58
102 -72 130 -13 29 -28 53 -33 53 -6 0 -8 3 -4 6 3 4 -1 23 -9 43 -44 103 -75
201 -120 386 -20 83 -29 212 -28 395 1 180 5 237 29 350 3 14 7 36 10 50 3 14
13 55 24 93 11 37 17 67 14 67 -3 0 0 7 7 15 7 8 10 22 6 30 -3 9 -2 14 3 10
5 -3 13 9 16 27 4 18 11 39 16 48 39 74 98 214 92 223 -3 5 -2 7 4 4 5 -4 16
6 24 21 35 69 168 257 234 331 71 80 203 202 281 261 26 19 55 43 65 53 11 9
22 17 27 18 18 1 90 54 85 63 -3 5 -1 6 6 2 6 -4 33 5 59 21 26 16 72 39 102
53 30 13 62 30 70 36 8 7 20 13 25 13 14 1 78 22 90 30 6 3 12 6 15 6 3 0 37
10 75 22 63 20 112 32 185 47 14 3 35 7 48 10 13 3 58 8 100 11 42 4 79 9 81
11 6 6 355 -3 406 -10z m1835 -1615 c0 -6 -4 -12 -8 -15 -5 -3 -9 1 -9 9 0 8
4 15 9 15 4 0 8 -4 8 -9z m-163 -1036 c0 -8 -4 -12 -9 -9 -5 3 -6 10 -3 15 9
13 12 11 12 -6z"/>
<path d="M2418 4365 c-3 -4 -32 -8 -65 -10 -32 -3 -69 -7 -83 -10 -14 -3 -41
-8 -60 -11 -94 -14 -349 -96 -361 -115 -3 -6 -10 -11 -15 -10 -24 1 -53 -12
-47 -22 3 -5 1 -7 -5 -4 -28 18 -301 -158 -418 -270 -24 -22 -44 -40 -44 -38
0 2 -13 -8 -28 -23 -15 -15 -27 -28 -26 -30 1 -2 -18 -22 -42 -44 -26 -24 -43
-47 -40 -55 3 -8 2 -12 -3 -9 -28 18 -291 -402 -291 -465 0 -8 -4 -19 -9 -24
-20 -21 -83 -234 -96 -325 -4 -24 -8 -47 -10 -50 -1 -3 -6 -32 -10 -65 -4 -33
-8 -70 -10 -83 -1 -12 2 -25 7 -28 5 -3 4 -12 -3 -20 -11 -14 -8 -224 5 -314
14 -90 17 -109 28 -160 6 -30 12 -57 13 -60 78 -296 214 -552 405 -764 66 -73
99 -106 104 -106 3 0 22 -17 43 -38 81 -80 344 -259 363 -247 6 3 10 2 10 -3
0 -24 235 -118 390 -156 163 -40 295 -55 470 -51 155 4 242 11 270 22 8 3 29
7 45 9 34 3 39 5 148 34 75 20 209 69 251 93 12 6 27 12 35 13 8 2 17 8 21 14
4 7 10 12 13 11 10 0 68 28 108 52 51 31 102 64 114 74 6 4 23 16 38 26 15 10
25 23 21 29 -5 7 -3 8 5 4 15 -10 53 23 44 37 -4 6 -1 7 6 2 13 -8 58 33 53
48 -1 5 1 6 6 3 5 -3 33 19 63 49 86 84 129 137 237 284 9 13 15 26 14 29 -2
3 0 8 5 11 24 17 126 209 117 222 -3 5 -1 9 4 9 15 0 97 224 87 240 -3 5 0 10
5 12 6 2 12 20 13 41 1 20 5 37 8 37 3 0 12 35 18 78 7 42 15 86 17 97 3 11 7
91 10 178 4 119 2 157 -6 152 -9 -6 -9 -2 -1 12 6 11 9 22 7 24 -2 2 -7 35
-11 74 -4 38 -8 72 -10 75 -1 3 -6 27 -9 54 -4 27 -9 52 -11 56 -2 4 -6 17 -9
31 -13 64 -39 146 -70 221 -64 156 -79 188 -87 188 -5 0 -9 7 -9 15 0 34 -177
288 -193 278 -6 -3 -7 -1 -3 5 7 12 -133 172 -152 172 -4 0 -13 9 -20 20 -7
12 -18 18 -24 14 -6 -4 -8 -3 -5 3 3 5 -2 16 -11 24 -50 43 -185 140 -239 173
-67 40 -239 127 -257 130 -6 1 -17 5 -23 9 -7 5 -18 5 -25 1 -7 -5 -8 -3 -3 6
6 10 4 12 -8 7 -9 -3 -17 -2 -19 4 -2 5 -17 10 -35 12 -17 1 -29 5 -27 8 3 6
-47 21 -81 24 -5 1 -26 6 -45 13 -38 12 -73 19 -135 28 -22 3 -53 7 -70 10
-66 12 -317 15 -330 4 -9 -8 -14 -8 -17 0 -2 6 -6 8 -10 5z m23 -99 c23 5 180
5 244 0 70 -6 162 -18 195 -26 19 -5 49 -11 65 -14 85 -13 243 -70 358 -126
53 -27 97 -46 97 -42 0 4 5 -1 11 -10 5 -10 15 -18 20 -18 32 0 235 -157 347
-270 89 -89 252 -302 252 -330 0 -5 3 -10 8 -12 9 -4 120 -230 127 -258 0 -3
11 -39 25 -80 13 -41 25 -84 27 -95 2 -11 8 -36 13 -55 8 -34 13 -59 30 -180
10 -72 10 -325 0 -381 -4 -24 -10 -64 -13 -89 -15 -119 -74 -313 -135 -437
-17 -35 -27 -63 -24 -63 4 0 3 -4 -3 -8 -5 -4 -19 -23 -29 -42 -24 -45 -119
-189 -143 -217 -81 -97 -98 -118 -95 -128 2 -5 1 -7 -3 -3 -4 4 -22 -8 -39
-25 -74 -72 -134 -125 -178 -157 -27 -18 -48 -36 -48 -39 0 -3 -14 -12 -30
-19 -17 -8 -27 -18 -24 -24 5 -7 2 -8 -5 -4 -7 5 -20 1 -29 -7 -9 -7 -25 -17
-35 -20 -11 -4 -15 -12 -11 -18 4 -7 3 -9 -3 -6 -6 4 -45 -11 -87 -33 -129
-65 -320 -131 -421 -144 -27 -4 -52 -9 -56 -11 -29 -19 -383 -27 -509 -13 -36
5 -103 17 -148 28 -46 11 -87 18 -92 15 -5 -3 -10 -1 -12 4 -1 4 -40 20 -86
35 -225 72 -476 231 -662 418 -35 34 -67 62 -72 60 -5 -1 -6 3 -2 9 3 6 3 14
-2 18 -28 19 -164 208 -177 244 -4 11 -12 15 -18 11 -7 -4 -9 -3 -5 4 3 6 -9
41 -28 79 -99 198 -148 362 -175 578 -23 179 0 474 50 648 11 40 21 77 22 82
2 6 6 15 10 22 4 6 8 23 9 37 1 14 6 26 10 26 3 0 10 10 14 22 21 67 138 288
157 296 4 2 7 8 7 13 0 5 7 17 15 26 8 10 35 45 60 78 47 61 177 198 237 248
73 61 86 71 153 116 132 87 347 192 420 205 6 1 15 4 20 7 25 14 211 55 292
65 42 4 60 10 56 18 -4 7 -1 6 8 -1 9 -7 26 -10 40 -7z"/>
<path d="M2534 3503 c-15 -21 -31 -40 -34 -43 -15 -14 -142 -174 -186 -235
-186 -260 -350 -592 -395 -800 -7 -33 -14 -67 -17 -75 -12 -47 -10 -251 3
-310 54 -231 245 -398 519 -455 481 -98 896 301 787 757 -38 163 -102 276
-295 523 -211 270 -269 387 -292 585 -11 100 -41 117 -90 53z m-320 -1102 c37
-92 81 -139 217 -231 240 -163 280 -246 160 -334 -64 -47 -123 -66 -173 -54
-122 27 -229 137 -279 285 -32 96 -29 166 11 296 18 59 34 106 36 105 1 -2 14
-32 28 -67z"/>
</g>
</svg>
